<svg xmlns="http://www.w3.org/2000/svg" viewBox="0 0 18.64 14.19">
	<g>
		<g>
			<path d="M0,7.1v0Z"/>
			<path d="M7.79,14.19a6.7,6.7,0,0,1-2-3.6,22.15,22.15,0,0,0-4,.76A10,10,0,0,0,7.79,14.19Z"/>
			<path d="M5.38,7.4H0a6.09,6.09,0,0,0,1.37,3.47A22.71,22.71,0,0,1,5.66,10,15.35,15.35,0,0,1,5.38,7.4Z"/>
			<path d="M18.64,7.1v0Z"/>
			<path d="M13.26,6.8h5.36a5.93,5.93,0,0,0-1.37-3.47A23.36,23.36,0,0,1,13,4.18,14.31,14.31,0,0,1,13.26,6.8Z"/>
			<path d="M10.85,14.19a10,10,0,0,0,6-2.84,21.86,21.86,0,0,0-4-.76A6.71,6.71,0,0,1,10.85,14.19Z"/>
			<path
				d="M6.41,10.53c.58,2.16,1.68,3.65,2.91,3.65s2.33-1.49,2.91-3.65q-1.37-.12-2.91-.12C8.29,10.41,7.33,10.45,6.41,10.53Z"/>
			<path d="M6,7.4A13.62,13.62,0,0,0,6.27,10c1-.09,2-.14,3.05-.14s2,0,3,.14a13.62,13.62,0,0,0,.29-2.55Z"/>
			<path d="M5.38,6.8a15.24,15.24,0,0,1,.28-2.62,23.54,23.54,0,0,1-4.27-.85A6.07,6.07,0,0,0,0,6.8Z"/>
			<path d="M13.26,7.4A15.13,15.13,0,0,1,13,10a23.33,23.33,0,0,1,4.27.86A6,6,0,0,0,18.62,7.4Z"/>
			<path d="M16.83,2.84a10,10,0,0,0-6-2.84,6.8,6.8,0,0,1,2,3.61A21.8,21.8,0,0,0,16.83,2.84Z"/>
			<path
				d="M9.32,4.39c-1,0-2.05,0-3.05-.15A13.73,13.73,0,0,0,6,6.8h6.68a13.73,13.73,0,0,0-.29-2.56C11.37,4.34,10.34,4.39,9.32,4.39Z"/>
			<path d="M7.78,0a10,10,0,0,0-6,2.84,23,23,0,0,0,4,.77A6.73,6.73,0,0,1,7.78,0Z"/>
			<path
				d="M12.23,3.66C11.65,1.51,10.55,0,9.32,0S7,1.51,6.41,3.66c.92.08,1.88.13,2.91.13S11.32,3.74,12.23,3.66Z"/>
		</g>
	</g>
</svg>
