<?xml version="1.0" encoding="utf-8"?>
<!-- Generator: Adobe Illustrator 27.5.0, SVG Export Plug-In . SVG Version: 6.00 Build 0)  -->
<svg version="1.1" id="Layer_1" xmlns="http://www.w3.org/2000/svg" xmlns:xlink="http://www.w3.org/1999/xlink" x="0px" y="0px"
	 viewBox="0 0 113.3 20.1" style="enable-background:new 0 0 113.3 20.1;" xml:space="preserve">
<style type="text/css">
	.st0{fill:#FFFFFF;}
</style>
<g>
	<path class="st0" d="M19.6,6.7c0-0.4-0.1-0.7-0.5-0.9L12,0.4c-0.3-0.2-0.6-0.2-0.9,0L7.8,3C6.1,2.4,4.7,2.1,3.5,2.1
		C1.3,2.1,0,3.1,0,4.8c0,1.6,1.3,3.8,3.5,6.1v5.2c0,0.3,0.2,0.6,0.6,0.6h7.4c3.2,1.7,6.1,2.6,8.2,2.6c2.1,0,3.5-1,3.5-2.7
		c0-1.7-1.3-3.8-3.6-6.1V6.7z M18.4,16l-7,0c-2.7-1.5-5.4-3.4-7.3-5.3V7.1c0-0.4,0.2-0.7,0.5-0.9l3.5-2.6c3.5,1.3,8.2,4.4,10.9,7.1
		v4.8C19,15.7,18.8,16,18.4,16z"/>
	<g>
		<rect x="42.1" y="4.5" class="st0" width="2.7" height="10.6"/>
		<path class="st0" d="M43.5,0h-0.2c-0.9,0-1.6,0.7-1.6,1.6s0.7,1.6,1.6,1.6h0.2c0.9,0,1.6-0.7,1.6-1.6S44.4,0,43.5,0z"/>
		<polygon class="st0" points="32.8,12.6 39.9,6.7 39.9,6.6 39.9,4.5 29,4.5 29,6.9 35.7,6.9 35.7,7 28.7,12.9 28.7,12.9 28.7,15.1 
			40.2,15.1 40.2,12.7 32.8,12.7 		"/>
		<path class="st0" d="M55.8,5.9h-0.1c-0.6-1.1-1.8-1.7-3.4-1.7h0c-3.2,0-5.6,2.3-5.6,5.6s2.3,5.6,5.6,5.6h0c2,0,2.9-0.9,3.4-1.7
			h0.1v1.5c0,1.6-1.1,2.5-3.1,2.5h-0.1c-1.5,0-2.6-0.5-3.6-1.6l0-0.1l-2,1.6l0,0.1c1.4,1.6,3.3,2.3,5.6,2.3h0c3.5,0,5.7-1.9,5.7-5
			V4.5h-2.7V5.9z M55.8,9.1v1.4c0,1.4-1.3,2.5-3,2.5h-0.2c-1.9,0-3.2-1.3-3.2-3.2s1.3-3.2,3.2-3.2h0.2C54.5,6.6,55.8,7.7,55.8,9.1z"
			/>
		<path class="st0" d="M94.3,4.2L94.3,4.2c-2.1,0-3.1,1-3.6,1.8h-0.1V4.5H88v10.6h2.7V9.5c0-1.7,1.2-2.9,3-2.9h0.2
			c1.7,0,2.8,1.2,2.8,3.2v5.2h2.7V9.5C99.3,6.3,97.4,4.2,94.3,4.2z"/>
		<path class="st0" d="M110.2,4.5v1.4H110c-0.6-1.1-1.8-1.7-3.4-1.7h0c-3.2,0-5.6,2.3-5.6,5.6s2.3,5.6,5.6,5.6h0
			c2,0,2.9-0.9,3.4-1.7h0.1v1.5c0,1.6-1.1,2.5-3.1,2.5H107c-1.5,0-2.6-0.5-3.6-1.6l0-0.1l-2,1.6l0,0.1c1.4,1.6,3.3,2.3,5.6,2.3h0
			c3.5,0,5.7-1.9,5.7-5V4.5H110.2z M110.2,9.1v1.4c0,1.4-1.3,2.5-3,2.5H107c-1.9,0-3.2-1.3-3.2-3.2s1.3-3.2,3.2-3.2h0.2
			C108.9,6.6,110.2,7.7,110.2,9.1z"/>
		<path class="st0" d="M67,4.3L67,4.3c-1.6,0-2.8,0.6-3.5,1.7h-0.1V0h-2.7v15.1h2.7v-1.4h0.1c0.4,0.8,1.4,1.7,3.4,1.7h0
			c3.2,0,5.6-2.3,5.6-5.6C72.5,6.6,70.2,4.3,67,4.3z M69.8,9.8c0,1.9-1.4,3.2-3.2,3.2h-0.2c-1.8,0-3.1-1-3.1-2.5V9.1
			c0-1.4,1.3-2.4,3.1-2.4h0.2C68.4,6.6,69.8,8,69.8,9.8z"/>
		<path class="st0" d="M83.1,5.9H83c-0.4-0.8-1.4-1.7-3.4-1.7h0c-3.2,0-5.6,2.3-5.6,5.6s2.4,5.6,5.6,5.6h0c2,0,3-0.9,3.4-1.7h0.1
			v1.4h2.7V4.5h-2.7V5.9z M83.1,9.1v1.4c0,1.4-1.3,2.5-3.1,2.5h-0.2c-1.9,0-3.2-1.3-3.2-3.2s1.4-3.2,3.2-3.2h0.2
			C81.9,6.6,83.1,7.6,83.1,9.1z"/>
	</g>
</g>
</svg>
