<?xml version="1.0" encoding="utf-8"?>
<!-- Generator: Adobe Illustrator 27.0.0, SVG Export Plug-In . SVG Version: 6.00 Build 0)  -->
<svg version="1.1" id="그룹_1900" xmlns="http://www.w3.org/2000/svg" xmlns:xlink="http://www.w3.org/1999/xlink" x="0px"
	 y="0px" viewBox="0 0 150 27" style="enable-background:new 0 0 150 27;" xml:space="preserve">
<style type="text/css">
	.st0{fill:#FF681B;}
</style>
<g>
	<path class="st0" d="M26,9.1c0-0.6-0.2-0.9-0.6-1.2L16,0.7c-0.4-0.3-0.8-0.3-1.2,0l-4.5,3.4C8.1,3.3,6.2,2.9,4.6,2.9
		C1.8,2.9,0,4.3,0,6.5c0,2.2,1.7,5.1,4.7,8.1v6.9c0,0.5,0.3,0.8,0.8,0.8h9.9c4.2,2.3,8.1,3.5,10.8,3.5c2.8,0,4.6-1.4,4.6-3.6
		c0-2.2-1.7-5.1-4.7-8.1V9.1z M25.4,20.7c0,0.5-0.3,0.8-0.8,0.8h-9.1c-3.8-2.1-7.4-4.7-10.1-7.3V9.3c0-0.6,0.2-0.9,0.6-1.2l4.7-3.5
		c4.7,1.8,11.1,5.9,14.7,9.5V20.7z"/>
	<g>
		<rect x="55.9" y="6.1" class="st0" width="3.6" height="14.1"/>
		<path class="st0" d="M57.9,0.2h-0.3c-1.2,0-2.1,0.9-2.1,2.2s0.9,2.2,2.1,2.2h0.3C59,4.5,60,3.5,60,2.3S59,0.2,57.9,0.2z"/>
		<polygon class="st0" points="43.7,16.9 53,9 53,9 53,6.1 38.5,6.1 38.5,9.3 47.5,9.3 47.5,9.5 38.1,17.3 38.1,17.4 38.1,20.2 
			53.5,20.2 53.5,17 43.7,17 		"/>
		<path class="st0" d="M74.2,8h-0.2c-0.8-1.4-2.4-2.3-4.5-2.3h-0.1c-4.3,0-7.4,3.1-7.4,7.4s3.1,7.4,7.4,7.4h0c2.6,0,3.9-1.3,4.5-2.3
			h0.2v2c0,2.2-1.5,3.4-4.1,3.4H70c-2,0-3.5-0.7-4.7-2.1l-0.1-0.1l-2.6,2.2l0.1,0.1c1.9,2.1,4.3,3.1,7.4,3.1h0.1
			c4.7,0,7.6-2.5,7.6-6.6V6.1h-3.5V8z M74.2,12.2v1.8c0,1.9-1.7,3.3-4,3.3H70c-2.5,0-4.3-1.8-4.3-4.2s1.8-4.2,4.3-4.2h0.2
			C72.5,8.9,74.2,10.3,74.2,12.2z"/>
		<path class="st0" d="M125.4,5.8h-0.1c-2.7,0-4,1.3-4.6,2.4h-0.2v-2H117v14.1h3.6v-7.4c0-2.2,1.7-3.8,3.9-3.8h0.3
			c2.3,0,3.7,1.6,3.7,4.3v7h3.6v-7.5C132.1,8.5,129.5,5.8,125.4,5.8z"/>
		<path class="st0" d="M146.5,6.1V8h-0.2c-0.8-1.4-2.4-2.3-4.5-2.3h-0.1c-4.3,0-7.4,3.1-7.4,7.4s3.1,7.4,7.4,7.4h0
			c2.6,0,3.9-1.3,4.5-2.3h0.2v2c0,2.2-1.5,3.4-4.1,3.4h-0.1c-2,0-3.5-0.7-4.7-2.1l-0.1-0.1l-2.6,2.2l0.1,0.1
			c1.9,2.1,4.3,3.1,7.4,3.1h0.1c4.7,0,7.6-2.5,7.6-6.6V6.1H146.5z M146.5,12.2v1.8c0,1.9-1.7,3.3-4,3.3h-0.2c-2.5,0-4.3-1.8-4.3-4.2
			s1.8-4.2,4.3-4.2h0.2C144.7,8.9,146.5,10.3,146.5,12.2z"/>
		<path class="st0" d="M89.1,5.8L89.1,5.8c-2.1,0-3.8,0.8-4.7,2.2h-0.2V0.2h-3.6v20.1h3.5v-1.9h0.2c0.6,1,1.8,2.3,4.5,2.3H89
			c4.3,0,7.4-3.1,7.4-7.4C96.5,8.9,93.4,5.8,89.1,5.8z M92.8,13.2c0,2.5-1.8,4.3-4.3,4.3h-0.2c-2.4,0-4.1-1.4-4.1-3.3v-1.9
			c0-1.9,1.7-3.3,4.1-3.3h0.2C91,9,92.8,10.8,92.8,13.2z"/>
		<path class="st0" d="M110.5,8h-0.2c-0.6-1-1.8-2.3-4.5-2.3h-0.1c-4.3,0-7.4,3.1-7.4,7.4s3.1,7.4,7.4,7.4h0.1c2.7,0,4-1.3,4.5-2.3
			h0.2v1.9h3.5V6.1h-3.5V8z M110.5,12.2v1.9c0,1.9-1.7,3.3-4.1,3.3h-0.2c-2.5,0-4.3-1.8-4.3-4.3s1.8-4.3,4.3-4.3h0.2
			C108.8,8.9,110.5,10.3,110.5,12.2z"/>
	</g>
</g>
</svg>
