<svg version="1.1" id="Layer_1" xmlns="http://www.w3.org/2000/svg" x="0" y="0" viewBox="0 0 137.05 137.05" style="enable-background:new 0 0 137.05 137.05" xml:space="preserve">
    <style>
        .st1{fill:#fff}
    </style>
    <path d="M0 0h137.05v137.05H0z"/>
    <g id="Layer_2_00000095318371806368791900000009629476187100659891_">
        <g id="Layer_1-2">
            <circle cx="68.53" cy="68.53" r="66.53" style="fill:none;stroke:#959595;stroke-width:4;stroke-miterlimit:10"/>
            <path class="st1" d="M50.84 65.61c-1.19 0-2.16.97-2.16 2.16 0 1.19.97 2.16 2.16 2.16S53 68.96 53 67.77c0-1.19-.97-2.16-2.16-2.16zm21.35-.22c-1.29-.01-2.33 1.03-2.34 2.32s1.03 2.33 2.32 2.34 2.33-1.03 2.34-2.32v-.02c0-1.28-1.04-2.32-2.32-2.32z"/>
            <path class="st1" d="M91.5 44.14H45.55c-4.64 0-8.39 3.75-8.4 8.39v27.28a8.397 8.397 0 0 0 8.4 8.39h16.23l5.52 13s.38 1.13 1.3 1.13 1.3-1.13 1.3-1.13l5.52-13H91.5c4.64 0 8.39-3.75 8.4-8.39V52.53a8.397 8.397 0 0 0-8.4-8.39zM56.86 68.25c0 5-5.18 5.13-5.18 5.13-1.18 0-2.3-.47-3.12-1.32V73h-3.75V57.47h3.75v5.92C49.45 61.88 52 61.9 52 61.9c5.56.52 4.86 6.35 4.86 6.35zm6.61-5.87V73H59.8V62.49c0-1.43-1.77-1.83-1.77-1.83V57c5.87.2 5.44 5.38 5.44 5.38zm8.72 11a5.691 5.691 0 0 1-5.2-6.14 5.691 5.691 0 0 1 6.14-5.2c2.95.24 5.22 2.71 5.22 5.67-.14 3.27-2.89 5.81-6.16 5.67zm20.13 0s.05 5.39-5.42 5.39h-1.67v-3.49h1s2.3.21 2.27-3.33c0 0-.45 1.43-3.67 1.43 0 0-4.58-.33-4.58-4.79V66.9a5.23 5.23 0 0 1 5.13-5c1.24-.08 2.44.45 3.2 1.43v-1.14h3.73l.01 11.19z"/>
            <path class="st1" d="M86.48 65.44a2.279 2.279 0 0 0-2.29 2.27A2.279 2.279 0 0 0 86.46 70c1.26.01 2.28-1.01 2.29-2.27v-.02a2.288 2.288 0 0 0-2.27-2.27z"/>
        </g>
    </g>
</svg>
