<svg xmlns="http://www.w3.org/2000/svg" viewBox="0 0 137.05 137.05" style="enable-background:new 0 0 137.05 137.05" xml:space="preserve">
    <path d="M0 0h137.05v137.05H0z"/>
    <circle cx="68.53" cy="68.53" r="66.53" style="fill:none;stroke:#959595;stroke-width:4;stroke-miterlimit:10"/>
    <path d="M90.93 31.6H46.12c-8.02 0-14.52 6.5-14.52 14.52v44.81c0 8.02 6.5 14.52 14.52 14.52h44.81c8.02 0 14.52-6.5 14.52-14.52V46.12c0-8.02-6.5-14.52-14.52-14.52zm-6.61 8.59h12.5v12.5h-12.5v-12.5zM68.53 55.28c7.25 0 13.12 5.87 13.12 13.12 0 7.25-5.87 13.12-13.12 13.12S55.41 75.65 55.41 68.4c-.01-7.24 5.86-13.11 13.1-13.12h.02zM98.2 91.13c.01 3.94-3.18 7.13-7.12 7.14H46c-3.94.01-7.13-3.18-7.14-7.12V60.8h11c-4.28 10.3.6 22.12 10.91 26.4 10.3 4.28 22.12-.6 26.4-10.91a20.21 20.21 0 0 0 0-15.5h11l.03 30.34z" style="fill:#fff"/>
</svg>
