<?xml version="1.0" encoding="utf-8"?>
<!-- Generator: Adobe Illustrator 27.0.0, SVG Export Plug-In . SVG Version: 6.00 Build 0)  -->
<svg version="1.1" id="Layer_1" xmlns="http://www.w3.org/2000/svg" xmlns:xlink="http://www.w3.org/1999/xlink" x="0px" y="0px"
	 viewBox="0 0 129 23" style="enable-background:new 0 0 129 23;" xml:space="preserve">
<style type="text/css">
	.st0{fill:#FF681B;}
</style>
<g>
	<path class="st0" d="M22.4,7.7c0-0.5-0.1-0.8-0.5-1l-8.1-6.1c-0.3-0.3-0.7-0.3-1,0L8.9,3.4C7,2.8,5.3,2.4,4,2.4c-2.5,0-4,1.2-4,3.1
		c0,1.9,1.4,4.4,4,6.9v6c0,0.4,0.3,0.7,0.7,0.7h8.5c3.6,2,6.9,3,9.3,3c2.4,0,4-1.2,4-3.1c0-1.9-1.5-4.4-4.1-7V7.7z M21.8,17.7
		c0,0.4-0.3,0.7-0.7,0.7h-7.9c-3.3-1.8-6.4-4-8.7-6.3V7.9c0-0.5,0.1-0.8,0.5-1l4-3c4.1,1.5,9.5,5,12.6,8.2V17.7z"/>
	<g>
		<rect x="48.1" y="5.2" class="st0" width="3.1" height="12.1"/>
		<path class="st0" d="M49.8,0h-0.2c-1,0-1.8,0.8-1.8,1.9s0.8,1.9,1.8,1.9h0.2c1,0,1.8-0.8,1.8-1.9S50.8,0,49.8,0z"/>
		<polygon class="st0" points="37.5,14.4 45.6,7.6 45.6,7.6 45.6,5.2 33.1,5.2 33.1,7.9 40.9,7.9 40.9,8.1 32.8,14.8 32.8,14.8 
			32.8,17.3 46,17.3 46,14.5 37.5,14.5 		"/>
		<path class="st0" d="M63.9,6.8h-0.2c-0.7-1.2-2.1-1.9-3.9-1.9h0c-3.7,0-6.4,2.7-6.4,6.4s2.7,6.4,6.4,6.4h0c2.3,0,3.4-1.1,3.9-1.9
			h0.2v1.7c0,1.9-1.3,2.9-3.5,2.9h-0.1c-1.7,0-3-0.6-4.1-1.8l-0.1-0.1l-2.2,1.9l0.1,0.1c1.6,1.8,3.7,2.6,6.4,2.6h0
			c4,0,6.5-2.2,6.5-5.7V5.2h-3V6.8z M63.9,10.4V12c0,1.6-1.5,2.8-3.5,2.8h-0.2c-2.1,0-3.7-1.5-3.7-3.6s1.5-3.6,3.7-3.6h0.2
			C62.4,7.6,63.9,8.8,63.9,10.4z"/>
		<path class="st0" d="M107.9,4.8L107.9,4.8c-2.4,0-3.6,1.1-4.1,2h-0.2V5.2h-3v12.1h3.1v-6.4c0-1.9,1.4-3.3,3.4-3.3h0.3
			c2,0,3.2,1.4,3.2,3.7v6h3.1v-6.5C113.6,7.2,111.3,4.8,107.9,4.8z"/>
		<path class="st0" d="M126,5.2v1.6h-0.2c-0.7-1.2-2.1-1.9-3.9-1.9h0c-3.7,0-6.4,2.7-6.4,6.4s2.7,6.4,6.4,6.4h0
			c2.3,0,3.4-1.1,3.9-1.9h0.2v1.7c0,1.9-1.3,2.9-3.5,2.9h-0.1c-1.7,0-3-0.6-4.1-1.8l-0.1-0.1l-2.2,1.9l0.1,0.1
			c1.6,1.8,3.7,2.6,6.4,2.6h0c4,0,6.5-2.2,6.5-5.7V5.2H126z M126,10.4V12c0,1.6-1.5,2.8-3.5,2.8h-0.2c-2.1,0-3.7-1.5-3.7-3.6
			s1.5-3.6,3.7-3.6h0.2C124.5,7.6,126,8.8,126,10.4z"/>
		<path class="st0" d="M76.6,4.9L76.6,4.9c-1.8,0-3.3,0.7-4,1.9h-0.2V0h-3.1v17.3h3v-1.6h0.2c0.5,0.9,1.6,1.9,3.9,1.9h0
			c3.7,0,6.4-2.7,6.4-6.4C83,7.6,80.3,4.9,76.6,4.9z M79.8,11.2c0,2.1-1.6,3.7-3.7,3.7h-0.2c-2,0-3.5-1.2-3.5-2.8v-1.6
			c0-1.6,1.5-2.8,3.5-2.8h0.2C78.2,7.6,79.8,9.2,79.8,11.2z"/>
		<path class="st0" d="M95.1,6.8h-0.2c-0.5-0.9-1.6-1.9-3.9-1.9h0c-3.7,0-6.4,2.7-6.4,6.4s2.7,6.4,6.4,6.4h0c2.3,0,3.4-1.1,3.9-1.9
			h0.2v1.6h3V5.2h-3V6.8z M95.1,10.4V12c0,1.6-1.5,2.8-3.5,2.8h-0.2c-2.1,0-3.7-1.5-3.7-3.7s1.6-3.7,3.7-3.7h0.2
			C93.6,7.6,95.1,8.8,95.1,10.4z"/>
	</g>
</g>
</svg>
